<svg height="217.107" viewBox="0 0 474.34668 217.10667" width="474.347" xmlns="http://www.w3.org/2000/svg"><path d="M76.78 142.449l-4.711-11.5-4.71 11.5zm-8.206-20.871h7.193l15.197 35.713h-8.156l-3.242-7.953H64.572l-3.242 7.953h-7.953zm31.921 30.545l4.61-5.52c3.192 2.634 6.536 4.306 10.588 4.306 3.19 0 5.117-1.267 5.117-3.344v-.102c0-1.974-1.216-2.988-7.143-4.509-7.143-1.822-11.752-3.798-11.752-10.84v-.1c0-6.434 5.166-10.689 12.41-10.689 5.167 0 9.574 1.62 13.171 4.508l-4.053 5.876c-3.14-2.178-6.23-3.495-9.219-3.495-2.99 0-4.56 1.367-4.56 3.09v.102c0 2.33 1.52 3.09 7.649 4.66 7.195 1.875 11.247 4.457 11.247 10.639v.101c0 7.041-5.37 10.992-13.02 10.992-5.369 0-10.79-1.875-15.045-5.675m50.107-23.1h-10.79v-7.193h29.382v7.194h-10.791v28.267h-7.801zm32.68-7.193h26.747v6.941h-18.996v7.194h16.718v6.94h-16.718v7.446h19.248v6.94h-26.999zm41.95 0h7.802v28.37h17.68v7.091h-25.482zm39.976 0h7.801v28.37h17.68v7.091h-25.481zm39.974 0h26.748v6.941h-18.996v7.194h16.715v6.94h-16.715v7.446h19.248v6.94h-27zm41.645 0h7.195l16.615 21.835V121.83h7.7v35.461h-6.634l-17.175-22.542v22.542h-7.7zm56.898 7.194h-10.79v-7.194h29.381v7.194h-10.79v28.267h-7.801zm-140.992-28.997h6.988l-24.146-53.194h-7.345l-24.146 53.194h6.988l13.034-28.714 13.037 28.714h6.988l-16.53-36.41 4.301-9.478zm-40.176-53.004l-24.062 53.004h6.99l24.061-53.004z" fill="#fff"/></svg>